<svg width="179" height="114" viewBox="0 0 179 114" fill="none" xmlns="http://www.w3.org/2000/svg">
<mask id="mask0" mask-type="alpha" maskUnits="userSpaceOnUse" x="0" y="0" width="179" height="114">
<path d="M8.30566 16.4019L16.897 36.4189L25.4443 16.4019H30.7397V42H26.6968V33.189L27.1143 21.4775L18.3691 42H15.3809L6.65771 21.5654L7.0752 33.189V42H3.03223V16.4019H8.30566ZM52.207 35.8696H40.7812L38.3643 42H34.2114L44.7363 16.4019H48.3838L58.7549 42H54.624L52.207 35.8696ZM42.0996 32.5518H50.9106L46.5381 21.3677L42.0996 32.5518ZM80.2661 19.7637H71.499V42H67.4341V19.7637H58.7109V16.4019H80.2661V19.7637ZM105.601 42H101.536V31.0576H88.2642V42H84.1992V16.4019H88.2642V27.7178H101.536V16.4019H105.601V42Z" fill="black"/>
<path d="M11.8286 79.96V96H5.05371V53.3364H22.1558C27.1362 53.3364 31.1035 54.5571 34.0576 56.9985C37.0117 59.4155 38.4888 62.6748 38.4888 66.7764C38.4888 70.9268 37.0605 74.1616 34.2041 76.481C31.3477 78.8003 27.3071 79.96 22.0825 79.96H11.8286ZM11.8286 74.3936H22.1558C25.1831 74.3936 27.5269 73.7466 29.187 72.4526C30.8472 71.1587 31.6772 69.291 31.6772 66.8496C31.6772 64.5059 30.8472 62.6138 29.187 61.1733C27.5269 59.7085 25.2441 58.9639 22.3389 58.9395H11.8286V74.3936ZM62.915 79.5571H52.6978V96H45.9229V53.3364H61.5234C66.7236 53.3364 70.7275 54.4717 73.5352 56.7422C76.3672 59.0127 77.7832 62.2231 77.7832 66.3735C77.7832 71.9399 74.9146 75.8096 69.1772 77.9824L79.7241 95.6338V96H72.4731L62.915 79.5571ZM52.6978 74.0273H61.7065C64.563 74.0273 66.8213 73.3682 68.4814 72.0498C70.166 70.707 71.0083 68.9004 71.0083 66.6299C71.0083 64.1885 70.1904 62.2964 68.5547 60.9536C66.9189 59.6108 64.563 58.9395 61.4868 58.9395H52.6978V74.0273ZM121.875 75.9316C121.875 82.3037 120.19 87.3452 116.821 91.0562C113.452 94.7427 108.936 96.5859 103.271 96.5859C97.6807 96.5859 93.1641 94.7183 89.7217 90.9829C86.3037 87.2476 84.5947 82.1694 84.5947 75.7485V73.478C84.5947 67.1792 86.2915 62.1499 89.6851 58.3901C93.103 54.6304 97.6074 52.7505 103.198 52.7505C108.887 52.7505 113.403 54.606 116.748 58.3169C120.117 62.0278 121.826 66.9961 121.875 73.2217V75.9316ZM115.173 73.4048C115.173 68.5708 114.124 64.8721 112.024 62.3086C109.924 59.7451 106.982 58.4634 103.198 58.4634C99.5361 58.4634 96.6309 59.7695 94.4824 62.3818C92.3584 64.9941 91.2964 68.7051 91.2964 73.5146V75.9316C91.2964 80.6924 92.3706 84.3911 94.519 87.0278C96.6675 89.6401 99.585 90.9463 103.271 90.9463C107.08 90.9463 110.01 89.6646 112.061 87.1011C114.136 84.5132 115.173 80.79 115.173 75.9316V73.4048ZM156.335 77.7261H137.292V96H130.518V53.3364H159.265V58.9395H137.292V72.123H156.335V77.7261ZM173.401 96H166.589V53.3364H173.401V96Z" fill="black"/>
</mask>
<g mask="url(#mask0)">
<rect y="-1" width="179" height="102" fill="url(#paint0_linear)"/>
</g>
<defs>
<linearGradient id="paint0_linear" x1="-7.40435e-07" y1="-87.8214" x2="203.987" y2="-66.0324" gradientUnits="userSpaceOnUse">
<stop stop-color="#3399CC"/>
<stop offset="0.8062" stop-color="#9B51E0"/>
</linearGradient>
</defs>
</svg>
